<svg version="1.2" xmlns="http://www.w3.org/2000/svg" viewBox="0 0 90 34" width="90" height="34">
	<title>8291529-ai</title>
	<style>
		tspan { white-space:pre } 
		.s0 { fill: #24050a } 
	</style>
	<g id="OBJECTS">
		<g id="&lt;Group&gt;">
			<path id="&lt;Path&gt;" class="s0" d="m45 0.3l5.1 10.2 11.3 1.7-8.2 8 1.9 11.3-10.1-5.3-10.1 5.3 1.9-11.3-8.2-8 11.3-1.7z"/>
			<path id="&lt;Path&gt;" class="s0" d="m13.6 9.3l3.6 7.3 8 1.2-5.8 5.7 1.4 8-7.2-3.8-7.2 3.8 1.4-8-5.8-5.7 8-1.2z"/>
			<path id="&lt;Path&gt;" class="s0" d="m76.4 9.3l3.6 7.3 8 1.2-5.8 5.7 1.4 8-7.2-3.8-7.2 3.8 1.4-8-5.8-5.7 8-1.2z"/>
		</g>
	</g>
</svg>