<svg version="1.2" xmlns="http://www.w3.org/2000/svg" viewBox="0 0 64 63" width="64" height="63">
	<title>077484654674-ai</title>
	<style>
		.s0 { fill: #000000 } 
		.s1 { fill: #ffffff } 
	</style>
	<g id="1">
		<g id="&lt;Group&gt;">
			<filter id="f0">
				<feFlood flood-color="#360602" flood-opacity="1" />
				<feBlend mode="normal" in2="SourceGraphic"/>
				<feComposite in2="SourceAlpha" operator="in" />
			</filter>
			<g id="&lt;Group&gt;" filter="url(#f0)">
				<g id="&lt;Group&gt;">
					<g id="E - 295, Geo, location, star">
						<g id="&lt;Group&gt;">
							<path id="&lt;Compound Path&gt;" fill-rule="evenodd" class="s0" d="m62.4 60.5c0 0.7-0.6 1.3-1.3 1.3h-58c-0.7 0-1.4-0.6-1.4-1.3 0-0.7 0.7-1.3 1.4-1.3h26.8c-4-6.7-16.8-28.3-16.9-39.2 0.1-10.4 8.4-18.8 18.9-18.8 10.5 0 19.1 8.4 19 18.9-0.1 10-12.6 32.3-16.6 39.1h26.8c0.6 0 1.2 0.6 1.3 1.3zm-46.7-40.5c0 10.2 12.7 31.7 16.5 38 3.8-6.5 16.2-28.7 16.3-38 0-8.9-7.4-16.3-16.5-16.3-9 0-16.3 7.4-16.3 16.3z"/>
							<path id="&lt;Compound Path&gt;" fill-rule="evenodd" class="s0" d="m38.5 32.6l-6.4-3.6-6.3 3.6c-0.9 0.5-2-0.3-1.8-1.4l1.2-7.5-5.3-5.4c-0.7-0.7-0.3-1.9 0.7-2.1l7.2-1.1 3.2-6.9c0.2-0.4 0.6-0.7 1.1-0.7 0.5 0 0.9 0.3 1.1 0.7l3.3 6.9 7.1 1.1c1 0.1 1.4 1.4 0.7 2.1l-5.2 5.4 1.2 7.5c0.2 1.1-0.9 1.9-1.8 1.4zm-1.1-3.5l-0.9-5.6c-0.1-0.4 0-0.8 0.3-1.1l3.9-4.1-5.4-0.8c-0.4-0.1-0.7-0.3-1-0.7l-2.3-5-2.3 5c-0.1 0.4-0.5 0.6-0.9 0.7l-5.5 0.8 4 4.1c0.2 0.3 0.4 0.7 0.3 1.1l-0.9 5.6 4.7-2.6q0.6-0.3 1.2 0z"/>
						</g>
					</g>
					<g id="Layer 1 00000085229452271089271750000018055504190833426360 ">
					</g>
				</g>
			</g>
			<g id="&lt;Group&gt;">
				<g id="&lt;Group&gt;">
					<path id="&lt;Path&gt;" class="s1" d="m-145.1-18.5h100.9v100.9h-100.9z"/>
					<g id="E - 276, Gps, location, map, map marker">
						<g id="&lt;Group&gt;">
							<path id="&lt;Compound Path&gt;" fill-rule="evenodd" class="s0" d="m-64.9 31.4c0 16.8-13.5 30.3-30.3 30.3-16.7 0-30.2-13.5-30.2-30.3 0-16.7 13.5-30.2 30.2-30.2 16.8 0 30.3 13.5 30.3 30.2zm-2.5 0c0-15.3-12.4-27.7-27.8-27.7-15.3 0-27.7 12.4-27.7 27.7 0 15.4 12.4 27.8 27.7 27.8 15.4 0 27.8-12.4 27.8-27.8z"/>
							<path id="&lt;Compound Path&gt;" fill-rule="evenodd" class="s0" d="m-71.1 31.5c0 13.3-10.8 24.1-24.1 24.1-13.2 0-24-10.8-24-24.1 0-13.2 10.8-24 24-24 13.3 0 24.1 10.7 24.1 24zm-2.6-0.1c0-11.9-9.5-21.5-21.5-21.5-11.9 0-21.4 9.6-21.4 21.5 0 12 9.6 21.5 21.4 21.5 11.9 0 21.5-9.5 21.5-21.5z"/>
							<path id="&lt;Compound Path&gt;" fill-rule="evenodd" class="s0" d="m-84.8 25.6c0 6.2-8.8 21.1-9.2 21.7-0.4 0.8-1.7 0.8-2.2 0-0.4-0.6-9.4-14.9-9.4-21.7 0-5.8 4.7-10.5 10.4-10.5 5.9 0 10.5 4.6 10.4 10.5zm-2.3 0c0-4.4-3.5-8-7.9-8-4.5 0-8 3.7-8 8 0 4.3 5 13.6 8 18.6 2.8-5.1 7.7-14.7 7.9-18.6z"/>
							<path id="&lt;Compound Path&gt;" fill-rule="evenodd" class="s0" d="m-90.5 25.6c0 2.5-2.1 4.6-4.7 4.6-2 0-3.7-1.3-4.4-3.1-1-3.1 1.2-6.3 4.4-6.3 2.6 0 4.7 2.2 4.7 4.8zm-2.5 0c0-1.2-0.9-2.1-2.2-2.1-1.5 0-2.5 1.4-2 2.8 0.3 0.8 1.1 1.4 2 1.4 1.3 0 2.2-1.9 2.2-2.1z"/>
						</g>
					</g>
					<g id="Layer 1 00000117638577474052097860000007253728199283237004 ">
					</g>
				</g>
			</g>
			<g id="&lt;Group&gt;">
				<g id="&lt;Group&gt;">
					<path id="&lt;Path&gt;" class="s1" d="m-272.3-18.5h100.9v100.9h-100.9z"/>
					<g id="E - 282, road">
						<g id="&lt;Group&gt;">
							<path id="&lt;Compound Path&gt;" fill-rule="evenodd" class="s0" d="m-191.9 2.5c0 6.2 0 51.8 0 58 0 0.7-0.7 1.3-1.4 1.3-1.6 0-56.5 0-58 0-0.7 0-1.3-0.6-1.3-1.3 0-6.2 0-51.8 0-58 0-0.7 0.6-1.3 1.3-1.3 0.4 0 56.6 0 58 0 0.6 0 1.3 0.6 1.4 1.3zm-14.1 56.7v-18.8c0-0.7 0.6-1.3 1.3-1.3h10.2v-15.1h-10.1c-0.7 0-1.3-0.6-1.3-1.3v-19h-15.1v18.9c0 0.7-0.6 1.3-1.3 1.3h-27.8v15.1h27.8c0.7 0 1.3 0.6 1.3 1.3v18.9zm-44.1-55.5v17.7h26.5v-17.7zm0 55.5h26.6v-17.7h-26.6zm55.5-55.5h-8.8v17.7h8.8zm0 55.5v-17.7h-8.7v17.7z"/>
							<path id="&lt;Path&gt;" class="s0" d="m-242.5 30.2h-3.8c-0.8 0-1.4 0.6-1.4 1.3 0 0.8 0.6 1.4 1.4 1.4h3.8c0.7 0 1.3-0.6 1.3-1.4 0-0.8-0.6-1.3-1.3-1.3z"/>
							<path id="&lt;Path&gt;" class="s0" d="m-233.6 30.2h-3.9c-0.7 0-1.3 0.6-1.3 1.3 0 0.8 0.6 1.4 1.3 1.4h3.9c0.7 0 1.3-0.6 1.3-1.4-0.1-0.8-0.7-1.3-1.3-1.3z"/>
							<path id="&lt;Path&gt;" class="s0" d="m-224.9 30.2h-3.8c-0.7 0-1.3 0.6-1.3 1.3 0 0.8 0.6 1.4 1.3 1.4h3.8c0.8 0 1.4-0.6 1.4-1.4 0-0.8-0.6-1.3-1.4-1.3z"/>
							<path id="&lt;Path&gt;" class="s0" d="m-213.4 6.2c-0.8 0-1.4 0.6-1.4 1.3v3.9c0 0.7 0.6 1.3 1.4 1.3 0.7 0 1.3-0.6 1.3-1.3v-3.9c-0.1-0.7-0.7-1.3-1.3-1.3z"/>
							<path id="&lt;Path&gt;" class="s0" d="m-213.4 15.1c-0.8 0-1.4 0.6-1.4 1.3v3.8c0 0.7 0.6 1.4 1.4 1.4 0.7 0 1.3-0.7 1.3-1.4v-3.8c-0.1-0.8-0.7-1.3-1.3-1.3z"/>
							<path id="&lt;Path&gt;" class="s0" d="m-213.4 41.5c-0.8 0-1.4 0.6-1.4 1.4v3.8c0 0.7 0.6 1.3 1.4 1.3 0.7 0 1.3-0.6 1.3-1.3v-3.8c-0.1-0.8-0.7-1.4-1.3-1.4z"/>
							<path id="&lt;Path&gt;" class="s0" d="m-213.4 50.4c-0.8 0-1.4 0.6-1.4 1.3v3.9c0 0.7 0.6 1.3 1.4 1.3 0.7 0 1.3-0.6 1.3-1.3v-3.9c-0.1-0.8-0.7-1.3-1.3-1.3z"/>
							<path id="&lt;Path&gt;" class="s0" d="m-202.1 32.8h3.8c0.7 0 1.3-0.6 1.3-1.4 0-0.7-0.6-1.3-1.3-1.3h-3.8c-0.7 0-1.4 0.6-1.4 1.3 0.1 0.8 0.7 1.4 1.4 1.4z"/>
						</g>
					</g>
					<g id="Layer 1 00000012440867221904748520000003217995069948014768 ">
					</g>
				</g>
			</g>
			<g id="&lt;Group&gt;">
				<g id="&lt;Group&gt;">
					<path id="&lt;Path&gt;" class="s1" d="m-399.5-18.5h101v100.9h-101z"/>
					<g id="E - 293, Geo, location, time">
						<g id="&lt;Group&gt;">
							<path id="&lt;Compound Path&gt;" fill-rule="evenodd" class="s0" d="m-349.5 32.8c-7 0-12.6-5.7-12.6-12.7 0-6.9 5.6-12.6 12.6-12.6 7 0 12.6 5.7 12.6 12.6 0 6.9-5.6 12.7-12.6 12.7zm10.1-12.7c0-5.5-4.6-10.1-10.1-10.1-5.6 0-10.1 4.6-10.1 10.1 0 5.6 4.5 10.1 10.1 10.1 5.5 0 10.1-4.5 10.1-10.1z"/>
							<path id="&lt;Compound Path&gt;" fill-rule="evenodd" class="s0" d="m-319.1 60.5c0 0.7-0.6 1.3-1.3 1.3h-58.1c-0.7 0-1.3-0.6-1.3-1.3 0-0.7 0.6-1.3 1.3-1.3h26.9c-4.1-6.7-16.9-28.3-17-39.2 0.1-10.4 8.5-18.8 19-18.8 10.5 0 19.1 8.4 19 18.9-0.1 10-12.6 32.3-16.6 39.1h26.8c0.6 0 1.2 0.6 1.3 1.3zm-46.8-40.5c0 10.2 12.8 31.7 16.6 38 3.7-6.5 16.1-28.7 16.2-38 0-8.9-7.3-16.3-16.4-16.3-9 0-16.4 7.4-16.4 16.3z"/>
							<path id="&lt;Path&gt;" class="s0" d="m-343.1 20.1h-5.1v-6.3c0-0.7-0.6-1.3-1.3-1.3-0.7 0-1.3 0.6-1.3 1.3v7.6c0 0.7 0.6 1.3 1.3 1.3h6.4c0.7 0 1.3-0.6 1.3-1.3-0.1-0.8-0.7-1.3-1.3-1.3z"/>
						</g>
					</g>
					<g id="Layer 1 00000138568906728284401840000010356292721428835989 ">
					</g>
				</g>
			</g>
			<g id="&lt;Group&gt;">
				<g id="&lt;Group&gt;">
					<path id="&lt;Path&gt;" class="s1" d="m-526.6-18.5h100.9v100.9h-100.9z"/>
					<g id="E - 277, world, map">
						<path id="&lt;Compound Path&gt;" fill-rule="evenodd" class="s0" d="m-476.7 61.7c-16.7 0-30.3-13.6-30.3-30.3 0-18.1 16.1-32.3 34.3-29.9 14.2 1.8 25.2 13.6 26.2 27.9 1.2 17.7-12.8 32.3-30.2 32.3zm27.7-31.3c-1.6-0.9-4-2.1-5.5-3-0.6 2.2-1.5 5.9-2.2 8.3 0 0.1-0.1 0.3-0.2 0.4-6.2 8-8.8 11.3-8.9 11.4-0.2 0.3-0.6 0.4-1 0.4-0.2 0 0 0-4-1.3-0.7-0.2-1-0.9-0.8-1.6l1.6-5-3.8 1.5c-0.3 0.2-0.7 0.2-1 0l-2.5-1.3c-0.1-0.1-0.3-0.2-0.4-0.4-3.3-4.5-3.8-5.1-3.9-5.4-0.1-0.2-0.1-0.3-0.1-5.5 0-0.4 0.3-0.8 0.6-1l6.7-4.6c-0.3-0.4-1.1-1.8-1.5-2.3-0.4-0.2-0.7-0.6-0.8-1-0.1-0.3-0.3-1.2 1.7-3.4 0.1-0.1 0.3-0.2 0.4-0.3l3.5-1.7-2.6-2.5c-0.3-0.3-0.4-0.6-0.4-0.9v-7.5c-7.9-0.8-15.4 1.9-21.1 7v9.2c0 0.2 0 0.3-0.1 0.5l-1.1 2.7 5.3 2c0.4 0.2 0.7 0.5 0.8 0.9l1.6 6.4c0 0.3 0 0.7-0.2 1l-1.4 2.1 1.5 11.9 3 3.5c0.3 0.3 0.4 0.8 0.2 1.2-0.5 1.2-1.3 3.8-1.6 5.1 3.4 1.3 6.9 2 10.5 2 15.9 0 28.5-13.2 27.7-28.8zm-39.3 21.5l-2.7-3.2c-0.2-0.2-0.3-0.5-0.3-0.7l-1.6-12.6c0-0.3 0-0.6 0.2-0.8l1.3-2-1.3-5.2-5.9-2.3c-0.7-0.3-1-1.1-0.7-1.7l1.5-3.6v-6.4c-11.6 13.4-7.5 34.4 8.3 42.7 0.3-1.1 0.9-3.1 1.2-4.2zm16.7-47.7v6.6l3.3 3.4c0.6 0.6 0.5 1.6-0.3 2l-4.9 2.4c-0.2 0.4-0.5 0.7-0.7 1 0.5 0.6 1.3 1.7 2.4 3.8 0.3 0.6 0.1 1.2-0.4 1.6l-7 4.6c0 1.5 0 3.3 0 4 0.5 0.7 2.2 2.9 3.3 4.4l1.9 0.8 5.8-2.3c0.4-0.1 0.9 0 1.3 0.3 0.3 0.3 0.5 0.8 0.3 1.3l-2.1 6.4 1.7 0.6 8.2-10.4c0.5-1.8 2-7.5 2.4-9.4-0.1-0.5 0.1-0.9 0.5-1.2 0.5-0.4 1.3-0.3 1.7 0.3 0.8 0.6 4.1 2.3 5 2.8-1.8-11.6-10.8-20.9-22.4-23z"/>
					</g>
					<g id="Layer 1 00000156583011321482024620000014476005417283120558 ">
					</g>
				</g>
			</g>
			<g id="&lt;Group&gt;">
				<g id="&lt;Group&gt;">
					<path id="&lt;Path&gt;" class="s1" d="m-653.8-18.5h100.9v100.9h-100.9z"/>
					<g id="E - 287, Arrow, web, world">
						<path id="&lt;Compound Path&gt;" fill-rule="evenodd" class="s0" d="m-573.6 32.8c-0.7 15.9-13.8 28.9-30.3 28.9-16.4 0-29.5-13-30.2-28.9-0.7-17.3 13.1-31.6 30.2-31.6 17.2 0 31 14.2 30.3 31.6zm-31.6 26.2v-14.9c-2.6 0-5.2-0.2-7.7-0.5 0.6 2.9 1.3 5.6 2.2 7.9 1.6 4.1 3.5 6.7 5.5 7.5zm2.7-55.1v14.9c2.6 0 5.2 0.2 7.7 0.5-0.6-2.9-1.3-5.6-2.2-7.9-1.6-4.1-3.5-6.7-5.5-7.5zm8 18.1c-2.6-0.3-5.3-0.6-8.1-0.6v10h8.8c0-3.2-0.2-6.4-0.7-9.4zm3.3 9.4h15.1c0-2.4-2.8-4.9-7.7-6.8-2.3-0.9-5-1.7-7.9-2.2 0.3 2.9 0.5 5.9 0.5 9zm-19.4-20c-0.9 2.3-1.7 5-2.2 7.9 2.5-0.3 5-0.5 7.7-0.5v-14.9c-2.1 0.8-4 3.4-5.5 7.5zm-2.7 10.6c-0.5 3-0.7 6.2-0.7 9.4h8.9v-10c-2.9 0.1-5.6 0.3-8.2 0.6zm-2.7 0.4c-2.9 0.6-5.6 1.3-7.9 2.2-4.9 1.9-7.7 4.4-7.7 6.8h15.1c0-3.1 0.2-6.1 0.5-9zm-14.6 11.6c1.2 1.6 3.5 3 6.7 4.3 2.3 0.9 5 1.7 7.9 2.2-0.3-2.1-0.4-4.3-0.5-6.5zm17.3 6.9c2.6 0.3 5.3 0.6 8.2 0.6v-7.5h-8.8q0.1 3.6 0.6 6.9zm16.3 10.6c0.9-2.3 1.8-5 2.3-7.9-2.6 0.3-5.1 0.5-7.8 0.5v14.9c2-0.8 3.9-3.4 5.5-7.5zm2.7-10.6q0.4-3.3 0.6-6.9h-8.8v7.5q4.2-0.1 8.2-0.6zm2.5-0.4c2.9-0.6 5.6-1.3 8-2.2 3.2-1.3 5.5-2.7 6.7-4.3h-14.1c-0.1 2.2-0.3 4.4-0.6 6.5zm-6.3-36.2c3.4 3.8 5.2 10.4 6 15.4 5 0.8 11.5 2.7 15.4 6-2.2-10.7-10.7-19.2-21.4-21.4zm-32.9 21.4c3.9-3.3 10.4-5.2 15.5-6 0.8-5 2.6-11.5 5.9-15.4-10.7 2.2-19.2 10.7-21.4 21.4zm21.4 32.9c-3.3-3.8-5.1-10.4-5.9-15.4-5.1-0.9-11.5-2.7-15.5-6 2.2 10.8 10.7 19.2 21.4 21.4zm32.9-21.4c-3.8 3.3-10.4 5.1-15.4 6-0.8 5-2.6 11.5-6 15.4 10.7-2.2 19.2-10.6 21.4-21.4z"/>
					</g>
					<g id="Layer 1 00000039829036329059597530000004644356928018413221 ">
					</g>
				</g>
			</g>
			<g id="&lt;Group&gt;">
				<g id="&lt;Group&gt;">
					<path id="&lt;Path&gt;" class="s1" d="m-781-18.5h100.9v100.9h-100.9z"/>
					<g id="E - 298, Road, stadium, track">
						<g id="&lt;Group&gt;">
							<path id="&lt;Compound Path&gt;" fill-rule="evenodd" class="s0" d="m-700.8 31.4c0 11.1-9 20.2-20.1 20.2h-20.2c-11.1 0-20.2-9.1-20.2-20.2 0-11.1 9.1-20.1 20.2-20.1h20.2c11.1 0 20.1 9 20.1 20.1zm-2.5 0c0-9.6-8-17.6-17.6-17.6h-20.2c-9.7 0-17.7 8-17.7 17.6 0 9.7 8 17.7 17.7 17.7h20.2c9.6 0 17.6-8 17.6-17.7z"/>
							<path id="&lt;Path&gt;" class="s0" d="m-719.6 18.8c-0.7 0-1.3 0.6-1.3 1.3 0 0.7 0.6 1.4 1.3 1.4 5.5 0 10.1 4.5 10.1 10 0 5.6-4.6 10.1-10.1 10.1h-17.7c-0.7 0-1.3 0.6-1.3 1.4 0 0.7 0.6 1.3 1.3 1.3h17.7c6.9 0 12.6-5.7 12.6-12.7 0-7.1-5.8-12.8-12.6-12.8z"/>
							<path id="&lt;Path&gt;" class="s0" d="m-742.3 41.5c-5.6 0-10.1-4.5-10.1-10.1 0-5.5 4.5-10 10.1-10h16.4c0.7 0 1.3-0.7 1.3-1.4 0-0.7-0.6-1.3-1.3-1.3h-16.4c-7 0-12.7 5.7-12.7 12.6 0 7 5.7 12.7 12.7 12.7 0.7 0 1.3-0.6 1.3-1.4 0-0.7-0.7-1.1-1.3-1.1z"/>
						</g>
					</g>
					<g id="Layer 1 00000148643326627315018320000007484600903763562634 ">
					</g>
				</g>
			</g>
			<g id="&lt;Group&gt;">
				<g id="&lt;Group&gt;">
					<path id="&lt;Path&gt;" class="s1" d="m-17.9-145.7h100.9v100.9h-100.9z"/>
					<g id="E - 291, Algorithm, strategy">
						<g id="&lt;Group&gt;">
							<path id="&lt;Compound Path&gt;" fill-rule="evenodd" class="s0" d="m62.4-124.7v58c0 0.7-0.6 1.3-1.3 1.3h-58c-0.7 0-1.4-0.6-1.4-1.3v-58c0-0.7 0.7-1.3 1.4-1.3h58c0.6 0 1.2 0.6 1.3 1.3zm-2.6 1.2h-55.5v55.5h55.5z"/>
							<path id="&lt;Path&gt;" class="s0" d="m18.2-78.1c0 0.7 0.6 1.3 1.3 1.3 0.7 0 1.3-0.6 1.3-1.3 0-15.3 11.9-27.8 27-28.9l-1.6 3.1c-0.3 0.6-0.1 1.4 0.6 1.7 0.6 0.3 1.4 0.1 1.7-0.6 2.7-5.3 2.6-5.1 2.6-5.3 0.1-0.5 0-0.8-0.2-1.1 0-0.1-2.8-3.8-3.8-5-0.4-0.6-1.2-0.7-1.8-0.3-0.7 0.4-0.8 1.2-0.4 1.8l2.4 3.1c-16.2 1.4-29.1 14.7-29.1 31.5z"/>
							<path id="&lt;Path&gt;" class="s0" d="m42-86.2l4.5-4.6c0.5-0.5 0.5-1.3 0-1.8-0.5-0.5-1.4-0.5-1.9 0l-4.4 4.5-4.5-4.4c-0.5-0.5-1.4-0.5-1.9 0-0.5 0.5-0.5 1.3 0 1.8l4.6 4.5-4.5 4.5c-0.5 0.5-0.5 1.3 0 1.8 0.6 0.5 1.4 0.5 1.9 0l4.4-4.5 4.5 4.4c0.6 0.5 1.4 0.5 1.9 0 0.5-0.5 0.5-1.3 0-1.8z"/>
							<path id="&lt;Compound Path&gt;" fill-rule="evenodd" class="s0" d="m13.1-109c0-3.8 3.1-6.9 6.9-6.9 3.9 0 7 3.1 7 6.9 0 3.9-3.1 7-7 7-3.8 0-6.9-3.1-6.9-7zm2.5 0c0 2.5 2 4.5 4.4 4.5 2.4 0 4.5-2 4.5-4.5 0-2.4-2.1-4.4-4.5-4.4-2.4 0-4.3 2-4.4 4.4z"/>
						</g>
					</g>
					<g id="Layer 1 00000132780393508755267070000003432030272853697665 ">
					</g>
				</g>
			</g>
			<g id="&lt;Group&gt;">
				<g id="&lt;Group&gt;">
					<path id="&lt;Path&gt;" class="s1" d="m-145.1-145.7h100.9v100.9h-100.9z"/>
					<g id="E - 296, Geo, globe, location">
						<g id="&lt;Group&gt;">
							<path id="&lt;Compound Path&gt;" fill-rule="evenodd" class="s0" d="m-95.2-94.4c-6.9 0-12.6-5.7-12.6-12.6 0-7 5.7-12.7 12.6-12.7 7 0 12.7 5.7 12.7 12.7 0 6.8-5.7 12.6-12.7 12.6zm10.1-12.7c0-0.1-0.4-0.8-2.4-1.6-0.8-0.2-1.6-0.4-2.6-0.6q0.1 2.2 0 4.3c0.9-0.1 1.8-0.3 2.6-0.6 2-0.7 2.4-1.4 2.4-1.5zm-8.5 7.7c0.2-0.8 0.4-1.6 0.6-2.6q-2.1 0.2-4.3 0c0.1 0.9 0.3 1.8 0.6 2.6 0.7 2.1 1.4 2.5 1.5 2.5 0.2 0 0.9-0.5 1.6-2.5zm0.9-5.2q0.1-2.4 0-4.9c-1.6-0.1-3.4-0.1-4.9 0-0.1 1.7-0.1 3.4 0 4.9 1.6 0.1 3.4 0.1 4.9 0zm-10.1-0.9c0.8 0.2 1.6 0.4 2.6 0.6q-0.1-2.1 0-4.3c-0.9 0.1-1.8 0.3-2.6 0.6-2 0.8-2.4 1.5-2.4 1.6 0 0.1 0.4 0.7 2.4 1.5zm6.1-9.2c-0.2 0.8-0.4 1.6-0.6 2.6q2.2-0.1 4.3 0c-0.1-0.9-0.3-1.8-0.6-2.6-0.7-2-1.4-2.4-1.6-2.4-0.1 0-0.8 0.4-1.5 2.4zm5.1-1.8c0.5 1.3 0.9 2.9 1.2 4.7 1.7 0.2 3.4 0.6 4.7 1.2-1-2.7-3.2-4.9-5.9-5.9zm-12.9 5.9c1.3-0.5 2.9-0.9 4.7-1.2 0.2-1.7 0.6-3.4 1.2-4.7-2.8 1-5 3.2-5.9 5.9zm5.8 13c-0.5-1.4-0.9-3-1.2-4.8-1.7-0.2-3.4-0.6-4.7-1.2 1 2.7 3.2 4.9 5.9 6zm12.9-6c-1.3 0.5-2.9 0.9-4.7 1.2-0.2 1.7-0.6 3.4-1.2 4.8 2.8-1.1 5-3.3 5.9-6z"/>
							<path id="&lt;Compound Path&gt;" fill-rule="evenodd" class="s0" d="m-64.8-66.7c0 0.7-0.6 1.3-1.3 1.3h-58c-0.7 0-1.3-0.6-1.3-1.3 0-0.7 0.6-1.3 1.3-1.3h26.8c-4-6.6-16.8-28.2-16.9-39.1 0.1-10.4 8.5-18.9 18.9-18.9 10.5 0 19.1 8.5 19 19-0.1 10-12.6 32.3-16.5 39h26.7c0.6 0 1.2 0.6 1.3 1.3zm-46.7-40.4c0 10.2 12.7 31.7 16.6 37.9 3.7-6.4 16.1-28.7 16.2-37.9 0-9-7.4-16.4-16.5-16.4-8.9 0-16.3 7.4-16.3 16.4z"/>
						</g>
					</g>
					<g id="Layer 1 00000119825923971488432230000004967813563445366686 ">
					</g>
				</g>
			</g>
			<g id="&lt;Group&gt;">
				<g id="&lt;Group&gt;">
					<path id="&lt;Path&gt;" class="s1" d="m-272.3-145.7h100.9v100.9h-100.9z"/>
					<g id="E - 288, Perspective, road, way">
						<g id="&lt;Group&gt;">
							<path id="&lt;Compound Path&gt;" fill-rule="evenodd" class="s0" d="m-192-66.8c0 0.7-0.7 1.3-1.4 1.3 1.7 0-51.1 0-58 0-0.7 0-1.3-0.7-1.2-1.4l6.4-58c0-0.6 0.6-1.1 1.2-1.1 1.5 0 44.3 0 45.4 0 0.6 0 1.1 0.5 1.2 1.1zm-57.9-1.2h9.9l3.5-55.5h-7.4zm42.7 0l-3.4-55.5h-23.2l-3.5 55.5zm12.5 0l-6-55.5h-7.4l3.5 55.5z"/>
							<path id="&lt;Path&gt;" class="s0" d="m-222.3-119.7c-0.7 0-1.3 0.7-1.3 1.4v5c0 0.7 0.6 1.3 1.3 1.3 0.7 0 1.3-0.6 1.3-1.3v-5c-0.1-0.8-0.6-1.4-1.3-1.4z"/>
							<path id="&lt;Path&gt;" class="s0" d="m-222.3-109.6c-0.7 0-1.3 0.6-1.3 1.4v5c0 0.7 0.6 1.3 1.3 1.3 0.7 0 1.3-0.6 1.3-1.3v-5c-0.1-0.9-0.6-1.4-1.3-1.4z"/>
							<path id="&lt;Path&gt;" class="s0" d="m-222.3-99.5c-0.7 0-1.3 0.6-1.3 1.3v5.1c0 0.7 0.6 1.3 1.3 1.3 0.7 0 1.3-0.6 1.3-1.3v-5.1c-0.1-0.8-0.6-1.3-1.3-1.3z"/>
							<path id="&lt;Path&gt;" class="s0" d="m-222.3-89.4c-0.7 0-1.3 0.6-1.3 1.3v5.1c0 0.7 0.6 1.3 1.3 1.3 0.7 0 1.3-0.6 1.3-1.3v-5.1c-0.1-0.8-0.6-1.3-1.3-1.3z"/>
							<path id="&lt;Path&gt;" class="s0" d="m-222.3-79.3c-0.7 0-1.3 0.6-1.3 1.3v5.1c0 0.7 0.6 1.3 1.3 1.3 0.7 0 1.3-0.6 1.3-1.3v-5.1c-0.1-0.8-0.6-1.3-1.3-1.3z"/>
						</g>
					</g>
					<g id="Layer 1 00000082352052323909975370000003765705585908934589 ">
					</g>
				</g>
			</g>
			<g id="&lt;Group&gt;">
				<g id="&lt;Group&gt;">
					<path id="&lt;Path&gt;" class="s1" d="m-399.5-145.7h101v100.9h-101z"/>
					<g id="E - 289, Destination, road, route">
						<g id="&lt;Group&gt;">
							<path id="&lt;Compound Path&gt;" fill-rule="evenodd" class="s0" d="m-319.3-73.6c0 4.5-3.7 8.1-8.2 8.1-3.8 0-7.2-2.7-8-6.3h-23.5c-6.7 0-12-5.4-12-12 0-6.7 5.4-12 12-12h21.5c5.3 0 9.5-4.3 9.5-9.5 0-5.3-4.2-9.5-9.5-9.5h-18.7l7.6 6.7c0.5 0.5 0.6 1.3 0.1 1.8-0.5 0.5-1.3 0.6-1.8 0.1-2.2-1.9-10.1-8.8-10.2-8.9-0.5-0.5-0.5-1.2-0.1-1.7 0.1-0.1-0.3 0.2 10.2-9 0.6-0.5 1.3-0.4 1.8 0.1 0.5 0.6 0.4 1.3-0.1 1.8l-7.6 6.7h18.8c6.7 0 12 5.3 12 12 0 6.6-5.4 12-12 12h-21.5c-5.1 0-9.5 4.2-9.5 9.5 0 5.2 4.3 9.5 9.5 9.5h23.4c0.3-4.3 3.9-7.6 8.2-7.6 4.5 0 8.1 3.6 8.1 8.2zm-2.4 0c0-3.2-2.6-5.7-5.7-5.7-3.1 0-5.7 2.5-5.7 5.7 0 3.1 2.6 5.6 5.7 5.6 3.1 0 5.7-2.5 5.7-5.6z"/>
							<path id="&lt;Compound Path&gt;" fill-rule="evenodd" class="s0" d="m-371.5-107.1c-4.6 0-8.2-3.7-8.2-8.2 0-4.6 3.6-8.2 8.2-8.2 4.5 0 8.2 3.6 8.2 8.2 0 4.5-3.8 8.3-8.2 8.2zm5.5-8.1c0-3.1-2.5-5.7-5.6-5.7-3.1 0-5.7 2.6-5.7 5.7 0 3.1 2.6 5.6 5.7 5.6 3.1 0 5.6-2.5 5.6-5.6z"/>
						</g>
					</g>
					<g id="Layer 1 00000091703746446555507520000000752238263885326467 ">
					</g>
				</g>
			</g>
			<g id="&lt;Group&gt;">
				<g id="&lt;Group&gt;">
					<path id="&lt;Path&gt;" class="s1" d="m-526.6-145.7h100.9v100.9h-100.9z"/>
					<g id="E - 290, Destination, road, route">
						<g id="&lt;Group&gt;">
							<path id="&lt;Compound Path&gt;" fill-rule="evenodd" class="s0" d="m-446.4-76.2c0 4.6-3.6 8.2-8.2 8.2-4.5 0-8.2-3.6-8.2-8.2 0-4.5 3.7-8.1 8.2-8.1 4.6 0 8.2 3.6 8.2 8.1zm-2.5 0c0-3.1-2.5-5.6-5.7-5.6-3.1 0-5.6 2.5-5.6 5.6 0 3.2 2.5 5.7 5.6 5.7 3.2 0 5.7-2.5 5.7-5.7z"/>
							<path id="&lt;Compound Path&gt;" fill-rule="evenodd" class="s0" d="m-465.4-75.4c0 0.3-0.1 0.6-0.3 0.8-0.1 0.1 0.4-0.3-10.2 8.9-0.6 0.6-1.3 0.5-1.8-0.1-0.5-0.6-0.4-1.3 0.1-1.8l7.6-6.6h-18.7c-6.7 0-12-5.4-12-12 0-6.7 5.4-12.1 12-12.1h21.5c5.2 0 9.5-4.3 9.5-9.5 0-5.3-4.2-9.5-9.5-9.5h-23.4c-0.3 4.2-3.8 7.5-8.2 7.5-4.5 0-8.2-3.6-8.2-8.1 0-4.6 3.7-8.2 8.2-8.2 3.8 0 7.2 2.7 8 6.3h23.6c6.7 0 12 5.4 12 12.1 0 6.6-5.4 12-12 12h-21.5c-5.2 0-9.5 4.2-9.5 9.5 0 5.2 4.3 9.4 9.5 9.4h18.7l-7.6-6.6c-0.5-0.5-0.6-1.3-0.1-1.8 0.5-0.5 1.3-0.6 1.8-0.1 10.6 9.3 10.1 8.8 10.2 8.9q0.3 0.3 0.3 1zm-27.7-42.3c0-3.2-2.6-5.7-5.7-5.7-3.1 0-5.6 2.5-5.6 5.7 0 3.1 2.5 5.6 5.6 5.6 3.1 0 5.7-2.5 5.7-5.6z"/>
						</g>
					</g>
					<g id="Layer 1 00000039125655755718096350000015805224418609823891 ">
					</g>
				</g>
			</g>
			<g id="&lt;Group&gt;">
				<g id="&lt;Group&gt;">
					<path id="&lt;Path&gt;" class="s1" d="m-653.8-145.7h100.9v100.9h-100.9z"/>
					<g id="E - 292, Gear, geo, location">
						<g id="&lt;Group&gt;">
							<path id="&lt;Compound Path&gt;" fill-rule="evenodd" class="s0" d="m-603.9-102c-2.8 0-5-2.2-5-5 0-2.9 2.2-5.1 5-5.1 2.9 0 5.1 2.2 5.1 5.1 0 2.7-2.2 5-5.1 5zm2.6-5c0-1.5-1.1-2.6-2.6-2.6-1.4 0-2.5 1.1-2.5 2.6 0 1.4 1.1 2.5 2.5 2.5 1.5 0 2.6-1.2 2.6-2.5z"/>
							<path id="&lt;Compound Path&gt;" fill-rule="evenodd" class="s0" d="m-573.5-66.7c0 0.7-0.6 1.3-1.3 1.3h-58c-0.7 0-1.3-0.6-1.3-1.3 0-0.7 0.6-1.3 1.3-1.3h26.8c-4-6.6-16.8-28.2-16.9-39.1 0.1-10.4 8.4-18.9 18.9-18.9 10.5 0 19.1 8.5 19 19-0.1 10-12.6 32.3-16.5 39h26.7c0.6 0 1.2 0.6 1.3 1.3zm-46.7-40.4c0 10.2 12.7 31.7 16.5 37.9 3.8-6.4 16.2-28.7 16.3-37.9 0-9-7.4-16.4-16.5-16.4-8.9 0-16.3 7.4-16.3 16.4z"/>
							<path id="&lt;Compound Path&gt;" fill-rule="evenodd" class="s0" d="m-601.7-94.2h-4.2c-0.7 0-1.3-0.6-1.3-1.3v-2.5q-0.3-0.1-0.6-0.3l-1.7 1.8c-0.5 0.5-1.3 0.5-1.8 0l-3-3c-0.5-0.5-0.5-1.3 0-1.8l1.8-1.7q-0.2-0.3-0.3-0.6h-2.5c-0.7 0-1.3-0.6-1.3-1.3v-4.2c0-0.7 0.6-1.3 1.3-1.3h2.5q0.1-0.3 0.3-0.6l-1.8-1.7c-0.5-0.5-0.5-1.3 0-1.8l3-2.9c0.5-0.5 1.3-0.5 1.8 0l1.6 1.7q0.3-0.2 0.6-0.3v-2.4c0-0.7 0.6-1.4 1.3-1.4h4.2c0.7 0 1.3 0.7 1.3 1.4v2.4q0.3 0.1 0.6 0.3l1.7-1.7c0.5-0.5 1.3-0.5 1.8 0l2.9 2.7c0.5 0.5 0.5 1.3 0 1.8l-1.7 1.7q0.2 0.3 0.3 0.6h2.4c0.8 0 1.4 0.6 1.4 1.3v4.2c0 0.7-0.6 1.3-1.4 1.3h-2.4q-0.1 0.3-0.3 0.6l1.7 1.7c0.5 0.5 0.5 1.3 0 1.8l-2.9 3c-0.5 0.5-1.3 0.5-1.8 0l-1.7-1.8q-0.3 0.2-0.6 0.3v2.5c0 0.7-0.6 1.3-1.2 1.5zm-0.4-6.2c0.6-0.1 1.2-0.4 1.8-0.7 0.5-0.3 1.1-0.2 1.5 0.2l1.5 1.5 1.1-1.2-1.5-1.5c-0.4-0.4-0.5-1-0.2-1.5 0.3-0.6 0.5-1.2 0.7-1.8 0.1-0.5 0.6-0.9 1.2-0.9h2.1v-1.5h-2.1c-0.6 0-1.1-0.3-1.2-1-0.1-0.6-0.4-1.2-0.7-1.8-0.3-0.5-0.2-1.1 0.2-1.5l1.5-1.5-1.1-1.1-1.5 1.5c-0.4 0.4-1 0.5-1.5 0.2-0.6-0.3-1.2-0.5-1.8-0.7-0.5-0.1-1-0.6-1-1.2v-2.1h-1.6v2.1c0 0.6-0.3 1.1-0.9 1.2-0.6 0.1-1.2 0.4-1.8 0.7-0.5 0.3-1.1 0.2-1.5-0.2l-1.5-1.5-1.1 1.1 1.5 1.5c0.4 0.4 0.5 1 0.2 1.5-0.3 0.6-0.5 1.2-0.7 1.8-0.1 0.6-0.6 1-1.2 1h-2.2v1.6h2.2c0.6 0 1.1 0.3 1.2 0.9 0.1 0.6 0.4 1.2 0.7 1.8 0.3 0.5 0.2 1.1-0.2 1.5l-1.5 1.5 1.1 1.1 1.5-1.4c0.4-0.4 1-0.5 1.5-0.2 0.6 0.3 1.2 0.5 1.8 0.7 0.5 0.1 0.9 0.6 0.9 1.2v2.2h1.6v-2.2c0-0.6 0.5-1.1 1-1.3z"/>
						</g>
					</g>
					<g id="Layer 1 00000070114191641939982600000018288012265746281893 ">
					</g>
				</g>
			</g>
			<g id="&lt;Group&gt;">
				<g id="&lt;Group&gt;">
					<path id="&lt;Path&gt;" class="s1" d="m-781-145.7h100.9v100.9h-100.9z"/>
					<g id="E - 286, Direction, maps, pointer">
						<g id="&lt;Group&gt;">
							<path id="&lt;Compound Path&gt;" fill-rule="evenodd" class="s0" d="m-700.8-95.7c0 16.7-13.5 30.2-30.2 30.2-16.8 0-30.3-13.5-30.3-30.2 0-16.8 13.5-30.3 30.3-30.3 16.7 0 30.2 13.5 30.2 30.3zm-2.5 0c0-15.4-12.4-27.8-27.7-27.8-15.4 0-27.8 12.4-27.8 27.8 0 15.3 12.4 27.7 27.8 27.7 15.3 0 27.7-12.4 27.7-27.7z"/>
							<path id="&lt;Compound Path&gt;" fill-rule="evenodd" class="s0" d="m-707-95.6c0 13.2-10.8 24-24 24-13.3 0-24.1-10.8-24.1-24 0-13.3 10.8-24.1 24.1-24.1 13.2 0 24 10.7 24 24.1zm-2.5-0.1c0-11.9-9.6-21.5-21.5-21.5-11.9 0-21.5 9.6-21.5 21.5 0 11.9 9.7 21.5 21.5 21.5 11.8 0 21.5-9.6 21.5-21.5z"/>
							<path id="&lt;Compound Path&gt;" fill-rule="evenodd" class="s0" d="m-719.5-105.7l-7.6 26.9c-0.1 0.5-0.6 0.9-1.2 0.9-0.6 0-1.1-0.4-1.2-0.9l-3.9-14.5-14.6-3.9c-0.5-0.1-0.9-0.7-0.9-1.3 0-0.6 0.4-1 0.9-1.2l27-7.5c0.9-0.3 1.8 0.6 1.5 1.5zm-3.1 1.4l-20.3 5.7 10.9 3c0.4 0.1 0.8 0.5 0.9 0.9l2.9 10.9z"/>
						</g>
					</g>
					<g id="Layer 1 00000158031066267090554850000002929818294050972599 ">
					</g>
				</g>
			</g>
			<g id="&lt;Group&gt;">
				<g id="&lt;Group&gt;">
					<path id="&lt;Path&gt;" class="s1" d="m-17.9-272.9h100.9v101h-100.9z"/>
					<g id="E - 299, Light, reverse, traffic">
						<g id="&lt;Group&gt;">
							<path id="&lt;Compound Path&gt;" fill-rule="evenodd" class="s0" d="m62.4-234.2v40.4c0 0.7-0.6 1.3-1.3 1.3-1.6 0-56.4 0-58 0-0.7 0-1.4-0.6-1.4-1.3v-40.4c0-0.7 0.7-1.3 1.4-1.3h13.6v-16.4c0-0.7 0.6-1.3 1.3-1.3 0.7 0 1.3 0.6 1.3 1.3v16.4c1.3 0 24.8 0 26.6 0v-16.4c0-0.7 0.6-1.3 1.3-1.3 0.7 0 1.3 0.6 1.3 1.3v16.4h12.6c0.6 0 1.2 0.6 1.3 1.3zm-31.6 39v-37.8h-26.5v37.8zm28.9-37.8h-26.4v37.8h26.4z"/>
							<path id="&lt;Path&gt;" class="s0" d="m46-226.6v17.6c0 0.7 0.6 1.3 1.3 1.3 0.7 0 1.3-0.6 1.3-1.3v-17.6c0-0.8-0.6-1.4-1.3-1.4-0.8 0-1.3 0.6-1.3 1.4z"/>
							<path id="&lt;Path&gt;" class="s0" d="m39.2-211.2c-0.5-0.4-1.3-0.4-1.8 0.1-0.4 0.5-0.4 1.3 0.1 1.8l8.9 7.6c0.5 0.4 1.2 0.4 1.6 0l8.9-7.6c0.5-0.4 0.6-1.2 0.1-1.8-0.4-0.5-1.3-0.6-1.9-0.1l-7.9 6.9z"/>
							<path id="&lt;Path&gt;" class="s0" d="m9.1-228.7c-0.4-0.6-1.2-0.7-1.7-0.3-0.6 0.4-0.7 1.2-0.3 1.7l7.1 10.1c0.2 0.3 0.6 0.5 1 0.5 1 0 1.6-1.1 1-2z"/>
							<path id="&lt;Path&gt;" class="s0" d="m27.7-229c-0.6-0.4-1.3-0.3-1.7 0.3l-7.1 10.1c-0.4 0.6-0.3 1.3 0.3 1.7 0.6 0.5 1.3 0.3 1.7-0.3l7.1-10c0.4-0.6 0.3-1.4-0.3-1.8z"/>
							<path id="&lt;Path&gt;" class="s0" d="m15.9-211.3c-0.6-0.4-1.3-0.3-1.7 0.3l-7.1 10.1c-0.4 0.6-0.3 1.3 0.3 1.7 0.6 0.4 1.3 0.3 1.7-0.3l7.1-10.1c0.4-0.5 0.2-1.3-0.3-1.7z"/>
							<path id="&lt;Path&gt;" class="s0" d="m20.9-211c-0.4-0.6-1.2-0.7-1.7-0.3-0.6 0.4-0.7 1.2-0.3 1.7l7.1 10.1c0.2 0.3 0.6 0.5 1 0.5 1 0 1.6-1.1 1-2z"/>
						</g>
					</g>
					<g id="Layer 1 00000005971078055087680190000017622495788979055275 ">
					</g>
				</g>
			</g>
			<g id="&lt;Group&gt;">
				<g id="&lt;Group&gt;">
					<path id="&lt;Path&gt;" class="s1" d="m-145.1-272.9h100.9v101h-100.9z"/>
					<g id="E - 279, Map, book">
						<g id="&lt;Group&gt;">
							<path id="&lt;Compound Path&gt;" fill-rule="evenodd" class="s0" d="m-64.8-251.9c0 2.6 0 53.7 0 58.1 0 0.7-0.6 1.3-1.3 1.3h-53c-3.5 0-6.3-3-6.3-6.4v-53c0-0.7 0.6-1.3 1.3-1.3h58c0.6 0 1.2 0.6 1.3 1.3zm-2.6 1.2h-49.1v45.5h49.1zm-55.5 46.7c1.1-0.9 2.5-1.3 3.8-1.3v-45.4h-3.8zm55.5 1.1h-51.7c-2.1 0-3.8 1.7-3.8 3.8 0 2.1 1.7 3.8 3.8 3.8h51.7z"/>
							<path id="&lt;Compound Path&gt;" fill-rule="evenodd" class="s0" d="m-111.6-228.6c0-10.8 8.8-19.5 19.6-19.5 10.8 0 19.6 8.7 19.6 19.5 0 10.8-8.8 19.6-19.6 19.6-10.8 0-19.5-8.8-19.6-19.6zm16-12.5c-0.5 1.5-0.9 3.2-1.2 5 3.2-0.3 6.4-0.3 9.4 0-0.3-1.8-0.7-3.6-1.2-5-1.2-3.3-2.5-4.5-3.4-4.5-0.8 0-2.2 1.2-3.6 4.5zm-1.4 7.5c-0.3 3.3-0.3 6.8 0 10 3.4 0.3 6.8 0.3 10 0 0.3-3.3 0.3-6.8 0-10-3.3-0.3-6.8-0.3-10 0zm12.5 9.6c1.9-0.3 3.6-0.7 5-1.2 3.3-1.2 4.5-2.6 4.5-3.5 0-0.9-1.2-2.2-4.5-3.4-1.5-0.5-3.1-0.9-5-1.2 0.4 3.1 0.4 6.4 0 9.3zm-4 8c0.5-1.6 0.9-3.2 1.2-5-3.1 0.3-6.3 0.3-9.4 0 0.3 1.8 0.7 3.5 1.2 5 1.3 3.3 2.6 4.5 3.5 4.5 0.9 0 2.2-1.2 3.5-4.5zm-11.1-17.2c-1.8 0.3-3.5 0.7-4.9 1.2-3.4 1.2-4.6 2.5-4.6 3.4 0 0.9 1.2 2.3 4.6 3.5 1.5 0.5 3.1 0.9 4.9 1.2-0.3-3-0.3-6.3 0-9.3zm3.2 21.1c-1.6-2.5-2.5-6.2-2.9-9.2-2.9-0.5-6.7-1.3-9.2-2.9 1.6 5.8 6.3 10.5 12.1 12.1zm20.9-12.1c-2.5 1.6-6.1 2.5-9.2 2.9-0.5 2.9-1.4 6.7-2.9 9.2 5.9-1.6 10.5-6.3 12.1-12.1zm-12.2-20.9c1.6 2.5 2.5 6.1 2.9 9.2 3 0.5 6.7 1.4 9.2 2.9-1.5-5.9-6.1-10.5-12.1-12.1zm-20.8 12.2c2.5-1.6 6.2-2.5 9.2-2.9 0.5-3 1.4-6.7 2.9-9.2-5.8 1.5-10.5 6.1-12.1 12.1z"/>
						</g>
					</g>
					<g id="Layer 1 00000018928207220473133570000002834765121113639576 ">
					</g>
				</g>
			</g>
			<g id="&lt;Group&gt;">
				<g id="&lt;Group&gt;">
					<path id="&lt;Path&gt;" class="s1" d="m-272.3-272.9h100.9v101h-100.9z"/>
					<g id="E - 284, add, plus, location">
						<g id="&lt;Group&gt;">
							<path id="&lt;Compound Path&gt;" fill-rule="evenodd" class="s0" d="m-222.3-221.6c-7 0-12.6-5.7-12.6-12.6 0-7 5.6-12.6 12.6-12.6 6.9 0 12.6 5.6 12.6 12.6 0 6.8-5.7 12.6-12.6 12.6zm10.1-12.6c0-5.6-4.6-10.1-10.1-10.1-5.6 0-10.1 4.5-10.1 10.1 0 5.5 4.5 10.1 10.1 10.1 5.5 0 10.1-4.6 10.1-10.1z"/>
							<path id="&lt;Compound Path&gt;" fill-rule="evenodd" class="s0" d="m-191.9-193.8c0 0.7-0.7 1.3-1.4 1.3h-58c-0.7 0-1.3-0.6-1.3-1.3 0-0.7 0.6-1.4 1.3-1.4h26.9c-4.1-6.6-16.9-28.2-17-39.1 0.1-10.4 8.5-18.9 19-18.9 10.5 0 19 8.5 18.9 19-0.1 10-12.6 32.3-16.5 39h26.7c0.6 0 1.3 0.7 1.4 1.4zm-46.8-40.5c0 10.2 12.7 31.7 16.6 37.9 3.7-6.4 16.1-28.6 16.2-37.9 0-9-7.3-16.4-16.4-16.4-9 0-16.4 7.4-16.4 16.4z"/>
							<path id="&lt;Path&gt;" class="s0" d="m-216-235.5h-5v-5.1c0-0.7-0.6-1.3-1.3-1.3-0.7 0-1.3 0.6-1.3 1.3v5.1h-5.1c-0.7 0-1.3 0.6-1.3 1.3 0 0.7 0.6 1.3 1.3 1.3h5.1v5c0 0.8 0.6 1.4 1.3 1.4 0.7 0 1.3-0.6 1.3-1.4v-5h5c0.7 0 1.3-0.6 1.3-1.3-0.1-0.7-0.7-1.3-1.3-1.3z"/>
						</g>
					</g>
					<g id="Layer 1 00000104702792087029617310000005462942665661140663 ">
					</g>
				</g>
			</g>
			<g id="&lt;Group&gt;">
				<g id="&lt;Group&gt;">
					<path id="&lt;Path&gt;" class="s1" d="m-399.5-272.9h101v101h-101z"/>
					<g id="E - 285, Maps, pin">
						<g id="&lt;Group&gt;">
							<path id="&lt;Path&gt;" class="s0" d="m-348.2-246.9c0-0.7-0.6-1.3-1.3-1.3-3.5 0-6.4 4.5-6.4 6.3 0 0.7 0.6 1.3 1.3 1.3 0.8 0 1.3-0.5 1.3-1.2 0.1-0.8 1.9-3.8 3.8-3.8 0.7 0 1.3-0.6 1.3-1.3z"/>
							<path id="&lt;Compound Path&gt;" fill-rule="evenodd" class="s0" d="m-328.2-199c0 2-2.3 3.6-6.9 4.8-8 2-21.1 2-29.1 0-4.6-1.2-6.9-2.8-6.9-4.8 0-2 2.3-3.6 6.9-4.7 3.6-0.9 8.2-1.4 13.3-1.5v-25.4c-5.7-0.6-10.1-5.4-10.1-11.3 0-6.3 5.1-11.4 11.4-11.4 6.4 0 11.4 5.2 11.4 11.4 0 5.9-4.4 10.7-10.1 11.3v25.4c5.1 0.1 9.7 0.6 13.3 1.5 4.7 1.1 6.8 2.7 6.8 4.7zm-21.2-34c4.9 0 8.9-3.9 8.9-8.9 0-4.9-4.1-8.9-8.9-8.9-5 0-8.9 4.1-8.9 8.9 0 5 3.9 8.9 8.9 8.9zm18.9 34.1c0-0.2-0.9-1.3-5-2.3-3.4-0.8-7.8-1.3-12.7-1.4v3.7c0 0.7-0.6 1.3-1.3 1.3-0.7 0-1.3-0.6-1.3-1.3v-3.7c-4.9 0.1-9.3 0.6-12.7 1.4-4.1 1-5 2.1-5 2.3 0 0.2 0.9 1.3 5 2.3 7.6 2 20.3 2 27.9 0 4.2-1 5.1-2.1 5.1-2.3z"/>
						</g>
					</g>
					<g id="Layer 1 00000092435106104036969180000007177402618988831929 ">
					</g>
				</g>
			</g>
			<g id="&lt;Group&gt;">
				<g id="&lt;Group&gt;">
					<path id="&lt;Path&gt;" class="s1" d="m-526.6-272.9h100.9v101h-100.9z"/>
					<g id="E - 278, Compass">
						<g id="&lt;Group&gt;">
							<path id="&lt;Compound Path&gt;" fill-rule="evenodd" class="s0" d="m-446.4-222.9c0 16.7-13.5 30.3-30.3 30.3-16.7 0-30.3-13.6-30.3-30.3 0-16.8 13.6-30.3 30.3-30.3 16.8 0 30.3 13.5 30.3 30.3zm-2.5 0c0-15.4-12.4-27.8-27.8-27.8-15.3 0-27.7 12.4-27.7 27.8 0 15.3 12.4 27.7 27.7 27.7 15.4 0 27.8-12.4 27.8-27.7z"/>
							<path id="&lt;Compound Path&gt;" fill-rule="evenodd" class="s0" d="m-452.7-222.8c0 13.2-10.8 24-24 24-13.2 0-24-10.8-24-24 0-13.2 10.8-24 24-24 13.2 0 24 10.7 24 24zm-2.5-0.1c0-11.9-9.6-21.5-21.5-21.5-11.9 0-21.5 9.6-21.5 21.5 0 11.9 9.7 21.5 21.5 21.5 11.8 0 21.5-9.6 21.5-21.5z"/>
							<path id="&lt;Compound Path&gt;" fill-rule="evenodd" class="s0" d="m-464.1-233.8l-4.9 17.6c0 0.5-0.5 0.9-1 1l-17.6 4.7c-0.9 0.3-1.8-0.6-1.5-1.5l4.7-17.6c0.1-0.5 0.6-0.9 1-1 2.8-0.8 13.3-3.6 17.7-4.8 1-0.2 1.8 0.6 1.6 1.6zm-22.1 20.3l13.6-3.7-9.8-9.7zm19-18.9l-13.5 3.7 9.8 9.8z"/>
						</g>
					</g>
					<g id="Layer 1 00000137114727259277282360000005575404271401734280 ">
					</g>
				</g>
			</g>
			<g id="&lt;Group&gt;">
				<g id="&lt;Group&gt;">
					<path id="&lt;Path&gt;" class="s1" d="m-653.8-272.9h100.9v101h-100.9z"/>
					<g id="E - 294, Check in, pin">
						<g id="&lt;Group&gt;">
							<path id="&lt;Compound Path&gt;" fill-rule="evenodd" class="s0" d="m-603.9-221.6c-6.9 0-12.6-5.7-12.6-12.6 0-7 5.7-12.6 12.6-12.6 7 0 12.7 5.6 12.7 12.6 0 6.8-5.7 12.6-12.7 12.6zm10.1-12.6c0-5.6-4.5-10.1-10.1-10.1-5.5 0-10.1 4.5-10.1 10.1 0 5.5 4.6 10.1 10.1 10.1 5.6 0 10.1-4.6 10.1-10.1z"/>
							<path id="&lt;Compound Path&gt;" fill-rule="evenodd" class="s0" d="m-573.5-193.8c0 0.7-0.6 1.3-1.3 1.3h-58c-0.7 0-1.3-0.6-1.3-1.3 0-0.7 0.6-1.4 1.3-1.4h26.8c-4-6.6-16.8-28.2-16.9-39.1 0.1-10.4 8.4-18.9 18.9-18.9 10.5 0 19.1 8.5 19 19-0.1 10-12.6 32.3-16.5 39h26.7c0.6 0 1.2 0.7 1.3 1.4zm-46.7-40.5c0 10.2 12.7 31.7 16.5 37.9 3.8-6.4 16.2-28.6 16.3-37.9 0-9-7.4-16.4-16.5-16.4-8.9 0-16.3 7.4-16.3 16.4z"/>
							<path id="&lt;Path&gt;" class="s0" d="m-598-240.3c-0.6-0.4-1.3-0.3-1.8 0.3l-6.7 8.8-2.7-3.3c-0.4-0.5-1.2-0.6-1.8-0.1-0.5 0.4-0.6 1.2-0.1 1.8l3.8 4.4c0.5 0.6 1.5 0.6 2-0.1l7.6-10.1c0.3-0.6 0.2-1.3-0.3-1.7z"/>
						</g>
					</g>
					<g id="Layer 1 00000181060692552892756170000007967531132092920741 ">
					</g>
				</g>
			</g>
			<g id="&lt;Group&gt;">
				<g id="&lt;Group&gt;">
					<path id="&lt;Path&gt;" class="s1" d="m-781-272.9h100.9v101h-100.9z"/>
					<g id="E - 283, minus, location">
						<g id="&lt;Group&gt;">
							<path id="&lt;Compound Path&gt;" fill-rule="evenodd" class="s0" d="m-731-221.6c-7 0-12.7-5.7-12.7-12.6 0-7 5.7-12.6 12.7-12.6 6.9 0 12.6 5.6 12.6 12.6 0 6.8-5.7 12.6-12.6 12.6zm10.1-12.6c0-5.6-4.6-10.1-10.1-10.1-5.6 0-10.1 4.5-10.1 10.1 0 5.5 4.5 10.1 10.1 10.1 5.5 0 10.1-4.6 10.1-10.1z"/>
							<path id="&lt;Compound Path&gt;" fill-rule="evenodd" class="s0" d="m-700.7-193.8c0 0.7-0.6 1.3-1.3 1.3h-58c-0.7 0-1.3-0.6-1.3-1.3 0-0.7 0.6-1.4 1.3-1.4h26.8c-4-6.6-16.8-28.2-16.9-39.1 0.1-10.4 8.5-18.9 19-18.9 10.5 0 19 8.5 18.9 19-0.1 10-12.6 32.3-16.5 39h26.7c0.6 0 1.2 0.7 1.3 1.4zm-46.7-40.5c0 10.2 12.7 31.7 16.6 37.9 3.7-6.4 16.1-28.6 16.2-37.9 0-9-7.4-16.4-16.4-16.4-9 0-16.4 7.4-16.4 16.4z"/>
							<path id="&lt;Path&gt;" class="s0" d="m-724.7-235.5h-12.6c-0.7 0-1.3 0.6-1.3 1.3 0 0.7 0.6 1.3 1.3 1.3h12.6c0.7 0 1.3-0.6 1.3-1.3-0.1-0.7-0.7-1.3-1.3-1.3z"/>
						</g>
					</g>
					<g id="Layer 1 00000065769261643959508850000013822301821670876054 ">
					</g>
				</g>
			</g>
		</g>
	</g>
</svg>