<svg version="1.2" xmlns="http://www.w3.org/2000/svg" viewBox="0 0 42 53" width="42" height="53">
	<title>Location Pin Multiple Styles Set-ai</title>
	<style>
		.s0 { fill: #000000 } 
	</style>
	<g id="Objects">
		<path id="&lt;Compound Path&gt;" fill-rule="evenodd" class="s0" d="m20.7 51.7q-0.3 0-0.6-0.2c-0.1-0.1-10.3-12.7-13.7-17.8-1.7-2.5-2.9-5-3.7-7.5-0.8-2.5-1.1-5-1-7.4 0.3-4.7 2.3-9.1 5.9-12.7 3.5-3.4 8.1-5.4 13.1-5.4 4.9 0 9.6 2 13.1 5.4 3.6 3.6 5.6 8 5.9 12.7 0.1 2.4-0.2 4.9-1 7.4-0.8 2.5-2 5-3.7 7.5-3.4 5.1-13.7 17.7-13.8 17.8q-0.2 0.2-0.5 0.2zm0-49.6c-4.6 0-8.9 1.8-12.1 5q-2.5 2.6-3.9 5.5-1.4 3-1.6 6.3c-0.1 2.2 0.2 4.5 0.9 6.8 0.8 2.4 1.9 4.9 3.6 7.3 2.9 4.3 10.9 14.3 13.1 16.9 2.2-2.6 10.2-12.6 13.1-16.9 1.6-2.4 2.8-4.9 3.6-7.3 0.7-2.3 1-4.6 0.9-6.8q-0.2-3.3-1.6-6.3-1.4-2.9-3.9-5.5c-3.3-3.2-7.6-5-12.1-5z"/>
		<path id="&lt;Compound Path&gt;" fill-rule="evenodd" class="s0" d="m20.7 31.1c-6.3 0-11.4-5.1-11.4-11.4 0-6.3 5.1-11.4 11.4-11.4 6.3 0 11.4 5.1 11.4 11.4 0 6.3-5.1 11.4-11.4 11.4zm10-11.4c0-5.5-4.5-10-10-10-5.5 0-10 4.5-10 10 0 5.6 4.5 10 10 10 5.5 0 10-4.4 10-10z"/>
	</g>
</svg>